<?xml version="1.0" encoding="utf-8"?>
<!-- Generator: Adobe Illustrator 13.0.0, SVG Export Plug-In . SVG Version: 6.00 Build 14948)  -->
<!DOCTYPE svg PUBLIC "-//W3C//DTD SVG 1.1//EN" "http://www.w3.org/Graphics/SVG/1.1/DTD/svg11.dtd">
<svg version="1.1" id="Layer_1" xmlns="http://www.w3.org/2000/svg" xmlns:xlink="http://www.w3.org/1999/xlink" x="0px" y="0px"
	 width="10.999px" height="10.034px" viewBox="0 0 10.999 10.034" enable-background="new 0 0 10.999 10.034" xml:space="preserve">
<g id="heart-empty">
	<path fill="#FFFFFF" d="M5.5,1.428C3.643-1.42,0,0.448,0,3.074c0,2.021,3.165,3.768,5.5,6.96c2.334-3.192,5.499-4.938,5.499-6.96
		C10.999,0.445,7.476-1.42,5.5,1.428z M7.583,5.822C6.914,6.477,6.212,7.191,5.5,8.012C4.787,7.191,4.127,6.49,3.458,5.835
		C2.333,4.73,1.3,3.773,1.3,3.066c0-1.055,0.916-1.871,1.79-1.871c0.55,0,1.021,0.299,1.404,0.885L5.47,3.57l1.018-1.465
		c0.414-0.596,0.923-0.91,1.476-0.91c0.868,0,1.737,0.802,1.737,1.871C9.698,3.779,8.708,4.721,7.583,5.822z"/>
</g>
</svg>
