<?xml version="1.0" encoding="utf-8"?>
<!-- Generator: Adobe Illustrator 13.0.0, SVG Export Plug-In . SVG Version: 6.00 Build 14948)  -->
<!DOCTYPE svg PUBLIC "-//W3C//DTD SVG 1.1//EN" "http://www.w3.org/Graphics/SVG/1.1/DTD/svg11.dtd">
<svg version="1.1" id="Layer_1" xmlns="http://www.w3.org/2000/svg" xmlns:xlink="http://www.w3.org/1999/xlink" x="0px" y="0px"
	 width="12px" height="11px" viewBox="0 0 12 11" enable-background="new 0 0 12 11" xml:space="preserve">
<g id="tasks">
	<g id="tasks_x5F_alt">
		<path fill="#FFFFFF" d="M12,5c0-0.553-0.445-1-1-1H1C0.446,4,0,4.447,0,5v1c0,0.553,0.446,1,1,1h10c0.555,0,1-0.447,1-1V5z M11,6
			H1V5h10V6z M12,9c0-0.553-0.445-1-1-1H1C0.446,8,0,8.447,0,9v1c0,0.553,0.446,1,1,1h10c0.555,0,1-0.447,1-1V9z M11,10H1V9h10V10z
			 M12,1c0-0.553-0.445-1-1-1H1C0.446,0,0,0.447,0,1v1c0,0.553,0.446,1,1,1h10c0.555,0,1-0.447,1-1V1z M11,2H1V1h10V2z"/>
	</g>
	<rect x="1" y="1" opacity="0.5" fill="#FFFFFF" enable-background="new    " width="8" height="1"/>
	<rect x="1" y="5" opacity="0.5" fill="#FFFFFF" enable-background="new    " width="5" height="1"/>
	<rect x="1" y="9" opacity="0.5" fill="#FFFFFF" enable-background="new    " width="7" height="1"/>
</g>
</svg>
