<?xml version="1.0" encoding="utf-8"?>
<!-- Generator: Adobe Illustrator 13.0.0, SVG Export Plug-In . SVG Version: 6.00 Build 14948)  -->
<!DOCTYPE svg PUBLIC "-//W3C//DTD SVG 1.1//EN" "http://www.w3.org/Graphics/SVG/1.1/DTD/svg11.dtd">
<svg version="1.1" id="Layer_1" xmlns="http://www.w3.org/2000/svg" xmlns:xlink="http://www.w3.org/1999/xlink" x="0px" y="0px"
	 width="11.542px" height="11.543px" viewBox="0 0 11.542 11.543" enable-background="new 0 0 11.542 11.543" xml:space="preserve">
<g id="exclamation-sign">
	<path id="circle_x5F_exclamation_x5F_mark" fill="#FFFFFF" d="M5.771,0C2.583,0,0,2.584,0,5.771s2.584,5.771,5.771,5.771
		c3.188,0,5.771-2.584,5.771-5.771S8.958,0,5.771,0z M6.771,8.771h-2v-1h2V8.771z M6.633,6.281c-0.052,0.27-0.32,0.49-0.594,0.49
		H5.503c-0.274,0-0.542-0.221-0.594-0.49L4.33,3.263C4.277,2.992,4.461,2.771,4.735,2.771h2.07c0.274,0,0.458,0.221,0.405,0.49
		L6.633,6.281z"/>
</g>
</svg>
