<?xml version="1.0" encoding="utf-8"?>
<!-- Generator: Adobe Illustrator 13.0.0, SVG Export Plug-In . SVG Version: 6.00 Build 14948)  -->
<!DOCTYPE svg PUBLIC "-//W3C//DTD SVG 1.1//EN" "http://www.w3.org/Graphics/SVG/1.1/DTD/svg11.dtd">
<svg version="1.1" id="Layer_1" xmlns="http://www.w3.org/2000/svg" xmlns:xlink="http://www.w3.org/1999/xlink" x="0px" y="0px"
	 width="11.542px" height="11.543px" viewBox="0 0 11.542 11.543" enable-background="new 0 0 11.542 11.543" xml:space="preserve">
<g id="ok-circle">
	<path fill="#FFFFFF" d="M5.771,1.5c2.354,0,4.272,1.916,4.272,4.271s-1.916,4.271-4.272,4.271c-2.354,0-4.271-1.916-4.271-4.271
		S3.416,1.5,5.771,1.5 M5.771,0C2.583,0,0,2.584,0,5.771s2.584,5.771,5.771,5.771c3.188,0,5.772-2.584,5.772-5.771S8.958,0,5.771,0
		L5.771,0z"/>
	<polygon fill="#FFFFFF" points="3.271,6.406 4.403,5.275 5.27,6.142 7.314,4.098 8.445,5.229 5.271,8.402 	"/>
</g>
</svg>
