<?xml version="1.0" encoding="utf-8"?>
<!-- Generator: Adobe Illustrator 13.0.0, SVG Export Plug-In . SVG Version: 6.00 Build 14948)  -->
<!DOCTYPE svg PUBLIC "-//W3C//DTD SVG 1.1//EN" "http://www.w3.org/Graphics/SVG/1.1/DTD/svg11.dtd">
<svg version="1.1" id="Layer_1" xmlns="http://www.w3.org/2000/svg" xmlns:xlink="http://www.w3.org/1999/xlink" x="0px" y="0px"
	 width="12.212px" height="11.279px" viewBox="0 0 12.212 11.279" enable-background="new 0 0 12.212 11.279" xml:space="preserve">
<g id="edit">
	<path fill="#FFFFFF" d="M4.906,6.173L8.96,2.121l1.131,1.131L5.974,7.37l-1.61,0.499L4.906,6.173z M9.949,1.131L11.08,0L12,0.279
		l0.212,0.852L11.08,2.262L9.949,1.131z"/>
	<path fill="#FFFFFF" d="M9,7.029v1.25c0,0.55-0.45,1-1,1H3c-0.55,0-1-0.45-1-1v-5c0-0.55,0.45-1,1-1h3.112l1.864-1.864
		C7.663,0.335,4,0.279,4,0.279c-2.2,0-4,1.8-4,4v3c0,2.2,1.8,4,4,4h3c2.2,0,4-1.8,4-4v-2.25L9,7.029z"/>
</g>
</svg>
