<?xml version="1.0" encoding="utf-8"?>
<!-- Generator: Adobe Illustrator 13.0.0, SVG Export Plug-In . SVG Version: 6.00 Build 14948)  -->
<!DOCTYPE svg PUBLIC "-//W3C//DTD SVG 1.1//EN" "http://www.w3.org/Graphics/SVG/1.1/DTD/svg11.dtd">
<svg version="1.1" id="Layer_1" xmlns="http://www.w3.org/2000/svg" xmlns:xlink="http://www.w3.org/1999/xlink" x="0px" y="0px"
	 width="11.48px" height="11.479px" viewBox="0 0 11.48 11.479" enable-background="new 0 0 11.48 11.479" xml:space="preserve">
<g id="cog">
	<path fill="#FFFFFF" d="M5.739,11.479c-0.25,0-0.495-0.021-0.737-0.053L4.623,9.91L4.565,9.895C4.241,9.801,3.925,9.67,3.631,9.508
		L3.58,9.479l-1.337,0.804C1.82,9.951,1.485,9.611,1.195,9.234l0.804-1.336L1.971,7.848C1.806,7.551,1.676,7.236,1.586,6.913
		L1.568,6.857L0.053,6.479C0.019,6.2,0,5.971,0,5.738C0,5.488,0.021,5.242,0.053,5l1.516-0.379l0.018-0.057
		c0.09-0.32,0.22-0.635,0.386-0.935L2,3.579L1.195,2.241c0.328-0.417,0.667-0.752,1.049-1.045l1.337,0.802l0.051-0.027
		c0.297-0.166,0.611-0.295,0.934-0.386l0.058-0.017l0.379-1.515C5.278,0.019,5.509,0,5.738,0c0.254,0,0.496,0.021,0.74,0.053
		l0.379,1.515l0.058,0.017c0.32,0.091,0.637,0.22,0.934,0.386l0.051,0.027l1.336-0.802c0.421,0.331,0.758,0.669,1.049,1.045
		L9.48,3.579L9.509,3.63c0.163,0.294,0.294,0.608,0.387,0.935l0.018,0.057L11.428,5c0.034,0.277,0.053,0.508,0.053,0.738
		c0,0.252-0.021,0.498-0.053,0.74L9.913,6.857L9.896,6.913C9.802,7.239,9.672,7.555,9.509,7.848L9.481,7.898l0.803,1.336
		c-0.33,0.421-0.67,0.757-1.046,1.048L7.901,9.479L7.851,9.506C7.558,9.669,7.245,9.801,6.915,9.895L6.857,9.91l-0.379,1.516
		C6.201,11.46,5.973,11.479,5.739,11.479z M5.739,3.594c-1.185,0-2.146,0.963-2.146,2.146c0,1.186,0.963,2.148,2.146,2.148
		c1.186,0,2.147-0.965,2.147-2.148C7.888,4.557,6.925,3.594,5.739,3.594z"/>
</g>
</svg>
